<?xml version="1.0" standalone="no"?><!DOCTYPE svg PUBLIC "-//W3C//DTD SVG 1.1//EN" "http://www.w3.org/Graphics/SVG/1.1/DTD/svg11.dtd"><svg t="1602570313582" class="icon" viewBox="0 0 1024 1024" version="1.1" xmlns="http://www.w3.org/2000/svg" p-id="4932" xmlns:xlink="http://www.w3.org/1999/xlink" width="20" height="20"><defs><style type="text/css"></style></defs><path d="M511.99968 511.99968m-511.99968 0a511.99968 511.99968 0 1 0 1023.99936 0 511.99968 511.99968 0 1 0-1023.99936 0Z" fill="#F5F6FA" p-id="4933"></path><path d="M511.99968 785.055509c118.751926 0 223.35986 60.671962 284.479822 152.671905A509.503682 509.503682 0 0 1 511.99968 1023.99936c-105.279934 0-203.135873-31.77598-284.479822-86.239946A340.991787 340.991787 0 0 1 511.99968 785.055509z" fill="#6A82F9" p-id="4934"></path><path d="M648.543595 477.855701m47.77597 0l40.991974 0q47.77597 0 47.77597 47.77597l0 40.991975q0 47.77597-47.77597 47.77597l-40.991974 0q-47.77597 0-47.77597-47.77597l0-40.991975q0-47.77597 47.77597-47.77597Z" fill="#FBDCD3" p-id="4935"></path><path d="M511.99968 452.159717c37.695976 0 68.255957 30.559981 68.255957 68.287958v295.999815a68.255957 68.255957 0 1 1-136.511914 0v-295.999815c0-37.727976 30.559981-68.287957 68.255957-68.287958z" fill="#FBDCD3" p-id="4936"></path><path d="M238.943851 477.855701m47.77597 0l40.991974 0q47.77597 0 47.77597 47.77597l0 40.991975q0 47.77597-47.77597 47.77597l-40.991974 0q-47.77597 0-47.77597-47.77597l0-40.991975q0-47.77597 47.77597-47.77597Z" fill="#FBDCD3" p-id="4937"></path><path d="M511.99968 204.799872a204.799872 204.799872 0 0 1 204.799872 204.799872v136.543915a204.799872 204.799872 0 1 1-409.599744 0V409.599744A204.799872 204.799872 0 0 1 511.99968 204.799872z" fill="#FFE8DF" p-id="4938"></path><path d="M622.943611 375.455765h30.71998c30.143981 0 54.591966 24.447985 54.591966 54.623966v47.77597h42.687974v-184.319884c0-30.143981-24.447985-54.591966-54.623966-54.591966h-116.063928v136.511914h42.687974z" fill="#3D3F4B" p-id="4939"></path><path d="M361.823774 375.455765c-30.175981 0-54.623966 24.447985-54.623966 54.623966v47.77597H273.055829v-156.991902a150.175906 150.175906 0 0 1 150.207906-150.207906h279.871826c7.551995 0 13.663991 6.111996 13.663991 13.663992v88.735944a102.399936 102.399936 0 0 1-102.399936 102.399936h-252.575842z" fill="#525566" p-id="4940"></path></svg>